<?xml version="1.0" standalone="no"?><!DOCTYPE svg PUBLIC "-//W3C//DTD SVG 1.1//EN" "http://www.w3.org/Graphics/SVG/1.1/DTD/svg11.dtd"><svg t="1729046793693" class="icon" viewBox="0 0 1024 1024" version="1.1" xmlns="http://www.w3.org/2000/svg" p-id="5198" xmlns:xlink="http://www.w3.org/1999/xlink" width="200" height="200"><path d="M428.8 716.8c3.2 3.2 9.6 3.2 16 3.2 9.6 0 19.2-3.2 25.6-9.6l169.6-124.8c12.8-9.6 19.2-22.4 19.2-38.4s-6.4-28.8-19.2-38.4L470.4 384c-16-9.6-28.8-12.8-38.4-6.4-9.6 6.4-19.2 22.4-19.2 38.4v262.4c0 16 6.4 32 16 38.4z" fill="#13227a" p-id="5199"></path><path d="M803.2 172.8H672L723.2 96c6.4-12.8 6.4-32-6.4-41.6-12.8-6.4-32-3.2-38.4 9.6l-73.6 108.8h-182.4L345.6 64c-9.6-12.8-25.6-16-38.4-6.4-9.6 9.6-16 25.6-6.4 41.6L352 172.8H220.8c-80 0-144 70.4-144 153.6V768c0 83.2 64 153.6 144 153.6H800c80 0 144-70.4 144-153.6V326.4c3.2-83.2-60.8-153.6-140.8-153.6zM873.6 768c0 41.6-32 76.8-73.6 76.8-860.8 0-864-598.4 0-595.2 38.4 0 73.6 35.2 73.6 76.8V768z" fill="#13227a" p-id="5200"></path></svg>